<?xml version="1.0" standalone="no"?>
<svg width="600"
  height="600"
  viewBox="0 0 600 600"
  xmlns="http://www.w3.org/2000/svg">
    <g transform="translate(300,300)">
    <path d="M144.7,-156.3C181,-142,199.3,-90.2,189.8,-47.7C180.3,-5.3,143,27.9,120.1,71.1C97.2,114.3,88.8,167.6,63.4,178.8C38,190.1,-4.4,159.4,-59.3,146.5C-114.1,133.7,-181.3,138.6,-207.2,111.2C-233,83.8,-217.4,24.1,-200.8,-29.3C-184.1,-82.7,-166.3,-129.8,-132.6,-144.6C-99,-159.3,-49.5,-141.7,2.4,-144.5C54.2,-147.3,108.4,-170.5,144.7,-156.3Z" fill="#e5f8ff" />
  </g>
</svg>




