<?xml version="1.0" standalone="no"?>
<svg
  width="600"
  height="600"
  viewBox="0 0 600 600"
  xmlns="http://www.w3.org/2000/svg"
>
  <g transform="translate(300,300)">
    <path d="M148.1,-153.9C195.6,-136.7,240.1,-93.5,242.5,-47.5C244.9,-1.6,205.1,46.9,174,99.9C142.8,152.9,120.1,210.4,85.3,214.5C50.4,218.6,3.3,169.5,-49.9,146.2C-103.1,122.9,-162.4,125.4,-190.6,99.1C-218.7,72.8,-215.7,17.7,-207.7,-38.1C-199.7,-93.9,-186.6,-150.4,-151.2,-169.6C-115.7,-188.9,-57.9,-170.9,-3.7,-166.5C50.4,-162,100.7,-171,148.1,-153.9Z" fill="#efeeff" />
  </g>
</svg>
  