<?xml version="1.0" standalone="no"?>
<svg
  width="600"
  height="600"
  viewBox="0 0 600 600"
  xmlns="http://www.w3.org/2000/svg"
>
  <g transform="translate(300,300)">
    <path d="M110.5,-115.5C152,-96.9,200.6,-70.4,214.1,-32.1C227.6,6.2,206,56.4,176.8,97.5C147.6,138.7,110.7,170.8,70.2,179.8C29.8,188.9,-14.4,174.8,-66.4,163.9C-118.4,153,-178.3,145.2,-188.4,114.9C-198.5,84.7,-158.8,31.8,-133,-7.6C-107.1,-46.9,-95,-72.9,-75.1,-95.4C-55.3,-117.9,-27.6,-136.9,3.4,-141C34.5,-145.1,69,-134.2,110.5,-115.5Z" fill="#f3eaf4" />
  </g>
</svg>
  