<?xml version="1.0" standalone="no"?>
<svg
  width="600"
  height="600"
  viewBox="0 0 600 600"
  xmlns="http://www.w3.org/2000/svg"
>
  <g transform="translate(300,300)">
    <path d="M159.1,-174.3C204.3,-151.8,237.5,-99.8,234.2,-51.3C230.8,-2.8,190.7,42.1,153.6,72.1C116.5,102.2,82.4,117.3,46,133.7C9.7,150,-28.8,167.6,-64.2,161.2C-99.5,154.9,-131.6,124.7,-143,89.9C-154.4,55,-145.2,15.5,-149.5,-37.9C-153.8,-91.3,-171.7,-158.6,-149.1,-185.1C-126.4,-211.7,-63.2,-197.3,-3.1,-193.6C57,-189.9,114,-196.8,159.1,-174.3Z" fill="#fffbe8" />
  </g>
</svg>
  