<?xml version="1.0" standalone="no"?>
<svg
  width="600"
  height="600"
  viewBox="0 0 600 600"
  xmlns="http://www.w3.org/2000/svg"
>
  <g transform="translate(300,300)">
    <path d="M102.6,-107.6C138.4,-92.3,176.6,-65.1,183.4,-31.6C190.2,1.9,165.7,41.7,144.7,88.6C123.6,135.5,106.1,189.4,71.1,207.3C36.1,225.2,-16.3,207,-66.9,187.1C-117.4,167.3,-166.1,145.6,-181.6,109.4C-197,73.2,-179.3,22.3,-173.4,-33.9C-167.5,-90.2,-173.4,-152,-146.5,-168.9C-119.6,-185.8,-59.8,-157.9,-13.2,-142.2C33.4,-126.5,66.8,-123,102.6,-107.6Z" fill="#edfcf2" />
  </g>
</svg>
  