<?xml version="1.0" standalone="no"?>
<svg
  width="600"
  height="600"
  viewBox="0 0 600 600"
  xmlns="http://www.w3.org/2000/svg"
>
  <g transform="translate(300,300)">
    <path d="M105.6,-104C152.8,-86.1,218.2,-68.1,227.5,-37C236.7,-5.8,189.8,38.3,158.9,91.6C128,144.9,113.1,207.3,83.8,208.4C54.6,209.6,11.1,149.4,-35.2,121.7C-81.4,94,-130.3,98.8,-170.1,75.9C-209.8,53.1,-240.3,2.7,-223.9,-30.7C-207.5,-64,-144.3,-80.3,-99.1,-98.5C-54,-116.7,-27,-136.8,1.1,-138.1C29.1,-139.4,58.3,-121.8,105.6,-104Z" fill="#FFB4BC" />
  </g>
</svg>
  